<?xml version="1.0" encoding="UTF-8"?>
<!-- Generator: Adobe Illustrator 18.1.1, SVG Export Plug-In . SVG Version: 6.00 Build 0)  -->
<!DOCTYPE svg PUBLIC "-//W3C//DTD SVG 1.1//EN" "http://www.w3.org/Graphics/SVG/1.1/DTD/svg11.dtd">
<svg xmlns="http://www.w3.org/2000/svg" xmlns:xlink="http://www.w3.org/1999/xlink" xmlns:dc="http://purl.org/dc/elements/1.1/" xmlns:cc="http://creativecommons.org/ns#" xmlns:rdf="http://www.w3.org/1999/02/22-rdf-syntax-ns#" version="1.1" id="icons" x="0px" y="0px" viewBox="0 0 64 64" enable-background="new 0 0 64 64" xml:space="preserve">
<title property="dc:title">to sink</title><desc property="dc:description">An icon for "sink" from the Fandom series on to [icon]. Downloaded from http://www.toicon.com/icons/fandom_sink by 166.137.252.109 on 2015-04-25. Licensed CC-BY, see http://toicon.com/license/ for details.</desc><g>
	<g>
		<path fill="#8579A3" d="M32,7C18.19287,7,7,18.19287,7,32h50C57,18.19287,45.80713,7,32,7z"/>
		<path fill="#685683" d="M32,57c13.80713,0,25-11.19287,25-25H7C7,45.80713,18.19287,57,32,57z"/>
	</g>
	<path fill="#644638" d="M9.20343,42.24133l-0.1687,0.14746l0.51874,0.59247C9.43347,42.73645,9.31561,42.49054,9.20343,42.24133z"/>
	<g>
		<path fill="#3A3A3A" d="M32,57c8.99176,0,16.87158-4.74921,21.27643-11.8739c-1.93555-0.29572-3.87231-0.65491-5.83099-0.99329    c-5.49896-0.95001-10.63263-0.80249-16.13147,0.01666c-6.30322,0.9389-11.83252-1.14838-17.98907-1.93414    c-1.44482-0.18439-2.87854-0.30389-4.30609-0.36432C12.84247,50.75934,21.69135,57,32,57z"/>
		<g>
			<g>
				<path fill="#4B322A" d="M18.48909,29.26327l1.71233,1.95891l4.70565-4.11331l-1.71233-1.95891      c-0.72695-0.83163-1.99043-0.9165-2.82207-0.18955l-1.69403,1.48079C17.84701,27.16815,17.76214,28.43163,18.48909,29.26327z"/>
				<g>
					<polygon fill="#644638" points="28.2489,30.93195 24.9071,27.10889 20.20142,31.22211 23.73639,35.25958      "/>
				</g>
			</g>
			<g>
				<path fill="#4B322A" d="M7.32243,40.42993l1.71233,1.95891l4.70565-4.11331l-1.71233-1.95891      c-0.72695-0.83163-1.99043-0.9165-2.82207-0.18955l-1.69404,1.48079C6.68034,38.33481,6.59548,39.5983,7.32243,40.42993z"/>
				<path fill="#644638" d="M13.32489,42.21533c-1.2467-0.15912-2.48413-0.26093-3.71747-0.32709l4.133-3.61273l3.12433,3.57428      l-0.82489,0.79114L13.32489,42.21533z"/>
			</g>
			<path fill="#4D4D4D" d="M38.16602,27.69922l-17.6875-21.4375c-0.83957-1.01915,0.69618-2.29665,1.54297-1.27344l17.6875,21.4375     C40.56647,27.46668,38.9938,28.70073,38.16602,27.69922z"/>
			<g>
				<path fill="#AA9991" d="M37.17383,32.05096l17.09766-21.21307c-0.56315-0.50456-2.03214,0.63014-2.65381,1.30566      l-16.771,17.94788L37.17383,32.05096z"/>
				<path fill="#EFEAE0" d="M54.34619,8.72949c-1.60889-0.30371-3.21582,0.99023-4.2002,2.06055l-30.53302,32.5415      c0,0,2.30374,0.43538,2.33344,0.44061c1.88424,0.33039,3.55117,0.53965,5.33655,0.59851      c0.84924,0.02484,1.70819,0.00873,2.57983-0.06104L56.5,11.21875C56.59928,10.02083,55.64918,8.97666,54.34619,8.72949z       M37.17383,32.05096l-2.32715-1.95953l16.771-17.94788c0,0,1.94296-1.89253,2.65381-1.30566L37.17383,32.05096z"/>
				<g>
					<polygon fill="#AA9991" points="32.58549,29.50568 29.93749,29.3125 16.03986,42.64093 19.61444,43.32996      "/>
				</g>
				<path fill="#4B322A" d="M38.87238,43.49194c0.1233-0.19393,16.9527-26.71473,17.13385-26.85614      c-0.07318-0.23181-0.06702-0.48761,0.0423-0.72186l0.80835-1.73224c0.09283-0.19891,0.11761-0.42291,0.07056-0.63733      L56.5,11.21875l-26.67218,33.0932C30.98438,44.31195,35.88207,43.50113,38.87238,43.49194z"/>
				<path fill="#644638" d="M62.08887,23.48187c-0.6496-1.98029-2.00684-5.71722-3.27638-6.66937      C57.06249,15.5,55.875,16.75,55.875,16.75L38.87238,43.49194c1.99103-0.03619,3.98138,0.05115,6.00421,0.28149l13.70172-19.625      c0.76819-0.79968,1.95239-0.48029,2.81458-0.06866C61.79242,24.27051,62.22687,23.90253,62.08887,23.48187z"/>
			</g>
		</g>
	</g>
</g>
<metadata><work rdf:about=""><format>image/svg+xml</format><type rdf:resource="http://purl.org/dc/dcmitype/StillImage"/><license rdf:resource="http://creativecommons.org/licenses/by/4.0/"/><attributionname>Carol Liao</attributionname><attributionurl>http://www.toicon.com/icons/fandom_sink</attributionurl></work></metadata></svg>
