<?xml version="1.0" encoding="UTF-8"?>
<!-- Generator: Adobe Illustrator 18.1.1, SVG Export Plug-In . SVG Version: 6.00 Build 0)  -->
<!DOCTYPE svg PUBLIC "-//W3C//DTD SVG 1.1//EN" "http://www.w3.org/Graphics/SVG/1.1/DTD/svg11.dtd">
<svg xmlns="http://www.w3.org/2000/svg" xmlns:xlink="http://www.w3.org/1999/xlink" xmlns:dc="http://purl.org/dc/elements/1.1/" xmlns:cc="http://creativecommons.org/ns#" xmlns:rdf="http://www.w3.org/1999/02/22-rdf-syntax-ns#" version="1.1" id="icons" x="0px" y="0px" viewBox="0 0 64 64" enable-background="new 0 0 64 64" xml:space="preserve">
<title property="dc:title">to swim</title><desc property="dc:description">An icon for "swim" from the Fandom series on to [icon]. Downloaded from http://www.toicon.com/icons/fandom_swim by 100.2.156.226 on 2015-05-01. Licensed CC-BY, see http://toicon.com/license/ for details.</desc><g>
	<g>
		<path fill="#FF786E" d="M32,7C18.19287,7,7,18.19287,7,32h50C57,18.19287,45.80713,7,32,7z"/>
		<path fill="#BE5652" d="M32,57c13.80713,0,25-11.19287,25-25H7C7,45.80713,18.19287,57,32,57z"/>
	</g>
	<g>
		<path fill="#66C0D2" d="M44.90948,28.03436c-0.33575-2.03326-0.10809-5.67273-2.42773-9.09686    c-2.52136-3.72217-4.75659-8.30231-7.05768-12.2052C34.20691,4.66791,32.43604,3.61072,30,3.57812    c-0.2207,0.64221-9.76788,28.50922-12.49805,48.71356c6.89458,4.92103,15.88008,6.02486,23.77246,2.86646    c0,0,5.47559-1.88731,9.85492-7.12445C47.27643,35.96063,45.17847,29.66235,44.90948,28.03436z"/>
		<path fill="#4B889B" d="M23.43269,6.79484C21.13161,10.6977,18.89635,15.27787,16.375,19    c-2.31961,3.42415-2.09195,7.0636-2.42773,9.09686c-0.27603,1.67091-0.39372,2.11331-4.44305,14.81775    c1.8374,3.77991,4.60571,7.01855,7.99774,9.43958C20.2641,31.91315,30,3.64583,30,3.64583    C27.35417,3.5625,24.73821,4.58055,23.43269,6.79484z"/>
		<g>
			<path fill="#3A3A3A" d="M38.5,31c-3.625-6.75-6.5-6.625-11.125-6.625s-4.25-1.5-9.25,6.75     c-4.67871,7.71984-3.0354,18.32192-2.99255,19.32507c0.21777,0.19922,0.44208,0.39111,0.66681,0.58264     c0.86652-0.92133,1.73083-1.89471,2.48236-2.90369c0.85364-1.14606,1.64905-2.33362,2.46838-3.50403     c0.4823-0.68903,1.00763-1.3515,1.59454-1.9549c1.9964-2.05243,4.71484-3.15228,7.42657-1.84076     c1.6261,0.78644,3.01526,2.22913,4.32428,3.44452c3.18549,2.95769,9.43219,9.90796,9.43219,9.90796     c0.27258-0.14191,0.54187-0.28882,0.80847-0.44037C46.0939,47.83863,41.42463,36.44588,38.5,31z"/>
			<g>
				<path fill="#EFEAE0" d="M39.4162,49.70575l-0.21106-4.64325l-1.034,3.3175C38.17114,48.38,38.12662,48.31219,39.4162,49.70575z"/>
				<polygon fill="#EFEAE0" points="37.44843,47.61865 37.34802,42.69788 35.64044,45.78558     "/>
				<path fill="#EFEAE0" d="M34.67908,44.84491l0.28967-5.21423l-2.32874,3.28137      C34.005,44.15612,34.67908,44.84491,34.67908,44.84491z"/>
				<path fill="#EFEAE0" d="M31.46393,41.91101l-0.72418-5.54645l-1.59222,4.23047      C29.76846,40.81277,30.32758,41.0262,31.46393,41.91101z"/>
				<path fill="#EFEAE0" d="M27.40564,40.28168l-0.74609-3.8963l-1.49249,4.33752      C25.88458,40.43097,26.63538,40.2749,27.40564,40.28168z"/>
				<path fill="#EFEAE0" d="M23.8183,41.44031l-1.77362-3.50281l-0.26044,5.36578      C22.38931,42.59694,22.85802,42.08761,23.8183,41.44031z"/>
				<path fill="#EFEAE0" d="M21.05371,44.22046l-1.49123-2.69965l0.33766,4.32965      C21.08985,44.12986,21.05371,44.22046,21.05371,44.22046z"/>
			</g>
			<g>
				<path fill="#EFEAE0" d="M37.03754,28.5929l-0.06879,4.12585l1.48956-1.79248      C37.97333,30.02893,37.50195,29.26117,37.03754,28.5929z"/>
				<path fill="#EFEAE0" d="M31.36536,24.57013c-0.59326-0.10095-1.21277-0.14929-1.8631-0.17212l0.79596,5.63324L31.36536,24.57013      z"/>
				<path fill="#EFEAE0" d="M26.2218,29.5625l0.72961-5.19165c-0.95691-0.01849-1.68408-0.09277-2.29517-0.10132L26.2218,29.5625z"/>
				<path fill="#EFEAE0" d="M21.07617,26.52692l1.5238,3.24109l0.38904-5.16449      C22.41437,24.9129,21.83643,25.48859,21.07617,26.52692z"/>
				<path fill="#EFEAE0" d="M18.02454,31.30737l1.66295,2.427l-0.18034-4.85455      C19.05177,29.60343,18.6141,30.3102,18.02454,31.30737z"/>
				<path fill="#EFEAE0" d="M33.76746,25.39801l0.31586,5.82074l2.00977-3.85052      C35.31897,26.46918,34.55255,25.83649,33.76746,25.39801z"/>
			</g>
		</g>
	</g>
</g>
<metadata><work rdf:about=""><format>image/svg+xml</format><type rdf:resource="http://purl.org/dc/dcmitype/StillImage"/><license rdf:resource="http://creativecommons.org/licenses/by/4.0/"/><attributionname>Carol Liao</attributionname><attributionurl>http://www.toicon.com/icons/fandom_swim</attributionurl></work></metadata></svg>
