<?xml version="1.0" encoding="UTF-8"?>
<!-- Generator: Adobe Illustrator 18.1.1, SVG Export Plug-In . SVG Version: 6.00 Build 0)  -->
<!DOCTYPE svg PUBLIC "-//W3C//DTD SVG 1.1//EN" "http://www.w3.org/Graphics/SVG/1.1/DTD/svg11.dtd">
<svg xmlns="http://www.w3.org/2000/svg" xmlns:xlink="http://www.w3.org/1999/xlink" xmlns:dc="http://purl.org/dc/elements/1.1/" xmlns:cc="http://creativecommons.org/ns#" xmlns:rdf="http://www.w3.org/1999/02/22-rdf-syntax-ns#" version="1.1" id="icons" x="0px" y="0px" viewBox="0 0 64 64" enable-background="new 0 0 64 64" xml:space="preserve">
<title property="dc:title">to rise</title><desc property="dc:description">An icon for "rise" from the Fandom series on to [icon]. Downloaded from http://www.toicon.com/icons/fandom_rise by 166.137.252.109 on 2015-04-25. Licensed CC-BY, see http://toicon.com/license/ for details.</desc><g>
	<g>
		<path fill="#FFC865" d="M32,7C18.19287,7,7,18.19287,7,32h50C57,18.19287,45.80713,7,32,7z"/>
		<path fill="#BE9148" d="M32,57c13.80713,0,25-11.19287,25-25H7C7,45.80713,18.19287,57,32,57z"/>
	</g>
	<g>
		<path fill="#644638" d="M26.12671,42.48212c-4.08173,2.40924-10.3269,5.01105-12.50464,6.46106    C18.19006,53.89545,24.73145,57,32,57c0.927,0,1.841-0.05438,2.74188-0.15271c1.69678-3.51025,3.50439-10.83466,3.55487-11.84772    C37.29604,44.6329,26.12671,42.48212,26.12671,42.48212z"/>
		<g>
			<g>
				<path fill="#EFEAE0" d="M45.34518,18.83148c-0.09877-1.05414-0.30086-2.12856-1.05247-2.93016      c-1.22534-1.30682-1.40102,0.4549-1.43153,1.4916c-0.0145,0.49275-0.4816,3.2892,0.41257,3.2455      C44.41856,20.58206,45.4613,20.07075,45.34518,18.83148z"/>
			</g>
			<g>
				<path fill="#00B3A5" d="M30.03192,1.55074c0.97817,1.00032,2.96606,2.11451,4.90243,4.74765      c1.32224,1.79765,0.63602,5.09036,1.10197,7.23366c0.52515,1.726,1.96648,1.847,2.96651,1.33827      c-0.18112-0.20974-0.62045-5.1003-1.2534-7.63225c-0.25763-1.03052-0.39014-1.69218-1.31653-2.35665      c-1.49956-1.07568-2.95571-2.21274-4.45587-3.28835C31.24601,1.06896,30.42743,1.0809,30.03192,1.55074z"/>
				<path fill="#00B3A5" d="M20.91991,16.41663c0.3743-0.14166,0.61637-0.44399,0.71714-0.78743      c-0.60892-0.15867-1.24025-0.22341-1.8701-0.23448c-0.86925-0.01534-4.97889,0.20306-5.81306,0.44797      c-0.42107,0.12358-1.05474,0.53483-1.12888,1.02665L20.91991,16.41663z"/>
				<path fill="#00B3A5" d="M18.87832,7.92006l7.64553,2.56638c0.55894,0.11647,0.98067-0.15901,1.20811-0.54585      c0.20188,0.14492-1.3064-0.67688-2.49144-1.01026c-1.29318-0.36384-2.59727-0.69349-3.87271-1.11519      C19.375,7.15625,18.87832,7.92006,18.87832,7.92006z"/>
				<path fill="#00B3A5" d="M41.78259,16.86371c0.35809-0.35614,0.77252-0.47601,1.16632-0.47308      c0.12335-0.724,0.41376-1.28912,1.10559-0.71454l1.16425-5.26984c0.17841-0.91376,0.39563-1.39966-0.14478-2.28619      c0,0-3.1852-5.82227-4.19556-5.82227C40.45312,2.26562,40.20312,2.34375,40.07812,2.5      C44.67433,10.9424,44.90398,8.8045,41.78259,16.86371z"/>
				<g>
					<path fill="#01826E" d="M40.07849,2.50073c-0.77081,0.53778-0.65637,2.0545-0.28436,2.7594       c0.89336,1.69299,2.20728,2.74011,1.9715,4.72424c-0.21529,1.81106-1.57125,6.2658-2.76276,4.88593       c-1.00003,0.50869-2.44132,0.388-2.96655-1.33826c-0.46594-2.14331,0.22028-5.43604-1.10199-7.23364       c-1.88597-2.56469-3.8916-3.75092-4.89331-4.73914c-0.2309,0.26941-0.32758,0.6842-0.17096,1.25153       c0.18508,0.67014,2.93888,3.23241,3.43512,3.72339c0.69031,0.68304,1.19653,1.04773,1.2157,2.10248       c0.01774,0.98188-0.05553,4.76674-0.48706,5.72687c-0.23798,0.99561-1.18628,3.12665-2.36957,1.82184       c-0.73773-0.8136-1.07794-1.86481-1.49872-2.85687c-0.49244-1.1607-1.41042-2.65334-2.43359-3.38794       c-0.22742,0.38684-0.64917,0.66235-1.20807,0.5459l-7.62433-2.55341c0,0-0.586,1.1609,2.12128,2.54431       c1.46924,0.75073,3.05841,1.24243,4.52228,1.97778c1.15973,0.58246,1.93726,2.53955,2.22589,3.73877       c0.44977,1.86859-1.12653,1.65002-2.14398,1.21234c-1.00752-0.2711-2.72441-1.44765-3.98804-1.77704       c-0.10077,0.34344-0.34277,0.64569-0.71704,0.78741l-8.09491,0.4527c0,0-0.3755,0.9428,2.3454,1.3656       c1.77502,0.27582,3.8327-0.72034,5.42542,0.41028c4.58183,2.20735,1.31066,6.74298,2.74872,11.63989       c0.45813,1.55981,1.29669,2.96271,1.98059,4.42719c0,0,0.8139,0.63147,0.8139,9.51001       c2.99583,1.25376,1.04148,2.13864,4.57263,2.6073c-0.04305-0.01435-1.28753-15.06296-1.24707-15.05383       c-0.31049-3.50238,6.14789-9.08569,11.54492-8.42188c-0.47485-3.9563,0.02454-5.74738,0.77362-6.4917       C44.90457,8.80396,44.67311,10.94016,40.07849,2.50073z"/>
				</g>
				<path fill="#00B3A5" d="M46.57812,22.85938l-1.26489-3.51556c-0.18066,0.867-1.06946,1.24683-2.03949,1.29462      c-0.89417,0.0437-0.42706-2.75275-0.41254-3.24554c0.00891-0.30389,0.03131-0.66931,0.08801-1.00226      c-1.21741-0.00922-2.64142,1.11664-1.9397,6.96326c-5.39703-0.66382-11.85541,4.91949-11.54492,8.42188      c0,0,1.2115,15.00754,1.21436,15.0423c2.00854,0,6.51988-2.37966,7.68042-1.80243c0,0-1.1543-10.88855-0.71777-11.90521      C41.91089,30.81976,47.16553,26.02686,46.57812,22.85938z"/>
			</g>
		</g>
	</g>
</g>
<metadata><work rdf:about=""><format>image/svg+xml</format><type rdf:resource="http://purl.org/dc/dcmitype/StillImage"/><license rdf:resource="http://creativecommons.org/licenses/by/4.0/"/><attributionname>Carol Liao</attributionname><attributionurl>http://www.toicon.com/icons/fandom_rise</attributionurl></work></metadata></svg>
