<?xml version="1.0" encoding="UTF-8"?>
<!-- Generator: Adobe Illustrator 18.1.1, SVG Export Plug-In . SVG Version: 6.00 Build 0)  -->
<!DOCTYPE svg PUBLIC "-//W3C//DTD SVG 1.1//EN" "http://www.w3.org/Graphics/SVG/1.1/DTD/svg11.dtd">
<svg xmlns="http://www.w3.org/2000/svg" xmlns:xlink="http://www.w3.org/1999/xlink" xmlns:dc="http://purl.org/dc/elements/1.1/" xmlns:cc="http://creativecommons.org/ns#" xmlns:rdf="http://www.w3.org/1999/02/22-rdf-syntax-ns#" version="1.1" id="icons" x="0px" y="0px" viewBox="0 0 64 64" enable-background="new 0 0 64 64" xml:space="preserve">
<title property="dc:title">to catch</title><desc property="dc:description">An icon for "catch" from the Fandom series on to [icon]. Downloaded from http://www.toicon.com/icons/fandom_catch by 100.2.156.226 on 2015-05-01. Licensed CC-BY, see http://toicon.com/license/ for details.</desc><g>
	<g>
		<path fill="#FFC865" d="M32,7C18.19287,7,7,18.19287,7,32h50C57,18.19287,45.80713,7,32,7z"/>
		<path fill="#BE9148" d="M32,57c13.80713,0,25-11.19287,25-25H7C7,45.80713,18.19287,57,32,57z"/>
	</g>
	<g>
		<g>
			<path fill="#FF786E" d="M58.25748,13.94275C53.89323,6.17923,44.04482,2.46834,35.19339,6.91547     c-3.38483,6.73708-2.03389,14.05193,2.19287,19.07159C43.1875,24.22917,52.52083,20.02083,58.25748,13.94275z"/>
			<path fill="#BE5652" d="M37.38614,25.98706c-4.18943-4.97534-5.60436-12.28182-2.19275-19.0722     c-7.85663,3.94632-11.68415,13.00114-8.65759,21.46802C29.39346,28.04077,33.21243,27.29218,37.38614,25.98706z"/>
		</g>
		<g>
			<path fill="#EFEAE0" d="M59.92014,18.09827c-5.51306,5.28943-12.5868,8.7559-19.11176,11.00757     c4.90316,3.4051,11.55366,4.32786,17.77673,1.20135C60.50825,26.47933,61.03782,22.40372,59.92014,18.09827z"/>
			<path fill="#AA9991" d="M40.80826,29.1059c-4.6806,1.58264-9.07392,2.50562-12.44983,2.9632     c7.33008,11.19324,24.08633,10.46379,30.22736-1.76184C52.50117,33.36427,45.8406,32.60074,40.80826,29.1059z"/>
		</g>
		<g>
			<path fill="#3A3A3A" d="M59.9201,18.09827c-0.3811-1.46808-0.93652-2.86377-1.66266-4.15552     c-1.80499,1.85736-3.89258,3.55634-6.16681,5.08771c-1.16791-1.46179-2.93573-2.29651-4.80286-2.0697     c-3.09456,0.37613-5.29268,3.56691-4.63025,7.09436c-5.37091,2.24487-11.02405,3.71747-16.12177,4.32776     c0.46704,1.30646,1.07477,2.54419,1.82263,3.68622c5.31818-0.72083,10.97931-2.21356,16.30902-4.41797     c0.96191,0.84528,2.17401,1.3468,3.47418,1.3468c3.00818,0,5.36487-2.65021,5.35181-5.90143     C55.8429,21.59595,58.01331,19.92773,59.9201,18.09827z"/>
			
				<ellipse transform="matrix(0.99269 -0.12066 0.12066 0.99269 -2.41968 5.96157)" fill="#FFFAFA" cx="48.01709" cy="22.96101" rx="3.46664" ry="4.04442"/>
		</g>
	</g>
</g>
<metadata><work rdf:about=""><format>image/svg+xml</format><type rdf:resource="http://purl.org/dc/dcmitype/StillImage"/><license rdf:resource="http://creativecommons.org/licenses/by/4.0/"/><attributionname>Carol Liao</attributionname><attributionurl>http://www.toicon.com/icons/fandom_catch</attributionurl></work></metadata></svg>
