<?xml version="1.0" encoding="UTF-8"?>
<!-- Generator: Adobe Illustrator 18.1.1, SVG Export Plug-In . SVG Version: 6.00 Build 0)  -->
<!DOCTYPE svg PUBLIC "-//W3C//DTD SVG 1.1//EN" "http://www.w3.org/Graphics/SVG/1.1/DTD/svg11.dtd">
<svg xmlns="http://www.w3.org/2000/svg" xmlns:xlink="http://www.w3.org/1999/xlink" xmlns:dc="http://purl.org/dc/elements/1.1/" xmlns:cc="http://creativecommons.org/ns#" xmlns:rdf="http://www.w3.org/1999/02/22-rdf-syntax-ns#" version="1.1" id="icons" x="0px" y="0px" viewBox="0 0 64 64" enable-background="new 0 0 64 64" xml:space="preserve">
<title property="dc:title">to score</title><desc property="dc:description">An icon for "score" from the Fandom series on to [icon]. Downloaded from http://www.toicon.com/icons/fandom_score by 100.2.156.226 on 2015-05-01. Licensed CC-BY, see http://toicon.com/license/ for details.</desc><g>
	<g>
		<circle fill="#00B3A5" cx="32" cy="32" r="25"/>
		<path fill="#01826E" d="M32,57c13.80713,0,25-11.19287,25-25H7C7,45.80713,18.19287,57,32,57z"/>
	</g>
	<g>
		<g>
			<circle fill="#EFEAE0" cx="32" cy="7" r="4"/>
			<path fill="#AA9991" d="M30.21549,3.43766C28.90674,4.09505,28,5.43555,28,7c0,2.20915,1.79085,4,4,4     c1.56445,0,2.90495-0.90674,3.56234-2.2155C32.12804,10.50994,28.49097,6.87014,30.21549,3.43766z"/>
		</g>
		<g>
			<g>
				<g>
					<g>
						<g>
							<path fill="#FF786E" d="M3.92377,22.26504l1.84576,11.48791c1.55362,1.64771,5.93382,1.66837,7.46094,0.05219         l1.87341-11.55285C12.37782,23.26006,6.63884,23.26614,3.92377,22.26504z"/>
						</g>
						<g>
							<path fill="#BE5652" d="M3.92377,22.26504l1.84576,11.48791c0,0,1.10419,1.22699,3.53839,1.24481L8.7851,22.99313         C6.59137,22.94345,5.02283,22.67031,3.92377,22.26504z"/>
						</g>
						<g>
							<path fill="#FFFAFA" d="M9.5,16c-3.64957,0-8,0.60723-8,3.5c0,1.59665,1.38792,3.5,8,3.5c3.64957,0,8-0.60723,8-3.5         C17.5,17.90335,16.11208,16,9.5,16z"/>
							<ellipse fill="#EFEAE0" cx="9.5" cy="19.50629" rx="6.01236" ry="1.50165"/>
						</g>
					</g>
					<path fill="#AA9991" d="M15.50702,19.53262c-0.02869-0.59924-1.42908-1.11255-3.44244-1.35382       c-0.35327,0.96881-1.1283,2.19-2.12372,2.82361C13.0199,20.94644,15.45282,20.31271,15.50702,19.53262z"/>
				</g>
				<g>
					<g>
						<g>
							<path fill="#FF786E" d="M18.92377,22.26504l1.84576,11.48791c1.55362,1.64771,5.93382,1.66837,7.46094,0.05219         l1.87341-11.55285C27.37782,23.26006,21.63884,23.26614,18.92377,22.26504z"/>
						</g>
						<g>
							<path fill="#BE5652" d="M18.92377,22.26504l1.84576,11.48791c0,0,1.10419,1.22699,3.53839,1.24481L23.7851,22.99313         C21.59137,22.94345,20.02283,22.67031,18.92377,22.26504z"/>
						</g>
						<g>
							<path fill="#FFFAFA" d="M24.5,16c-3.64957,0-8,0.60723-8,3.5c0,1.59665,1.38792,3.5,8,3.5c3.64957,0,8-0.60723,8-3.5         C32.5,17.90335,31.11208,16,24.5,16z"/>
							<ellipse fill="#EFEAE0" cx="24.5" cy="19.50317" rx="6.01236" ry="1.50165"/>
						</g>
					</g>
					<path fill="#AA9991" d="M30.50702,19.53262c-0.02869-0.59924-1.42908-1.11255-3.44244-1.35382       c-0.35327,0.96881-1.1283,2.19-2.12372,2.82361C28.0199,20.94644,30.45282,20.31271,30.50702,19.53262z"/>
				</g>
				<g>
					<g>
						<g>
							<path fill="#FF786E" d="M33.92377,22.26504l1.84576,11.48791c1.55362,1.64771,5.93382,1.66837,7.46094,0.05219         l1.87341-11.55285C42.37782,23.26006,36.63884,23.26614,33.92377,22.26504z"/>
						</g>
						<g>
							<path fill="#BE5652" d="M33.92377,22.26504l1.84576,11.48791c0,0,1.10419,1.22699,3.53839,1.24481L38.7851,22.99313         C36.59137,22.94345,35.02283,22.67031,33.92377,22.26504z"/>
						</g>
						<g>
							<path fill="#FFFAFA" d="M39.5,16c-3.64957,0-8,0.60723-8,3.5c0,1.59665,1.38792,3.5,8,3.5c3.64957,0,8-0.60723,8-3.5         C47.5,17.90335,46.11208,16,39.5,16z"/>
							<ellipse fill="#EFEAE0" cx="39.5" cy="19.50317" rx="6.01236" ry="1.50165"/>
						</g>
					</g>
					<path fill="#AA9991" d="M45.50702,19.53262c-0.02869-0.59924-1.42908-1.11255-3.44244-1.35382       c-0.35327,0.96881-1.1283,2.19-2.12372,2.82361C43.0199,20.94644,45.45282,20.31271,45.50702,19.53262z"/>
				</g>
				<g>
					<g>
						<g>
							<path fill="#FF786E" d="M48.92377,22.26504l1.84576,11.48791c1.55362,1.64771,5.93382,1.66837,7.46094,0.05219         l1.87341-11.55285C57.37782,23.26006,51.63884,23.26614,48.92377,22.26504z"/>
						</g>
						<g>
							<path fill="#BE5652" d="M48.92377,22.26504l1.84576,11.48791c0,0,1.10419,1.22699,3.53839,1.24481L53.7851,22.99313         C51.59137,22.94345,50.02283,22.67031,48.92377,22.26504z"/>
						</g>
						<g>
							<path fill="#FFFAFA" d="M54.5,16c-3.64957,0-8,0.60723-8,3.5c0,1.59665,1.38792,3.5,8,3.5c3.64957,0,8-0.60723,8-3.5         C62.5,17.90335,61.11208,16,54.5,16z"/>
							<ellipse fill="#EFEAE0" cx="54.5" cy="19.50317" rx="6.01236" ry="1.50165"/>
						</g>
					</g>
					<path fill="#AA9991" d="M60.50702,19.53262c-0.02869-0.59924-1.42908-1.11255-3.44244-1.35382       c-0.35327,0.96881-1.1283,2.19-2.12372,2.82361C58.0199,20.94644,60.45282,20.31271,60.50702,19.53262z"/>
				</g>
			</g>
			<g>
				<g>
					<g>
						<g>
							<path fill="#FF786E" d="M11.42377,31.26188l1.84576,11.48792c1.55362,1.64771,5.93382,1.66837,7.46094,0.05219         l1.87341-11.55286C19.87782,32.25691,14.13884,32.26298,11.42377,31.26188z"/>
						</g>
						<g>
							<path fill="#BE5652" d="M11.42377,31.26188l1.84576,11.48792c0,0,1.10419,1.22699,3.53839,1.24481L16.2851,31.98997         C14.09137,31.94029,12.52283,31.66716,11.42377,31.26188z"/>
						</g>
						<g>
							<path fill="#FFFAFA" d="M17,25c-3.64957,0-8,0.60723-8,3.5c0,1.59665,1.38792,3.5,8,3.5c3.64957,0,8-0.60723,8-3.5         C25,26.90335,23.61208,25,17,25z"/>
							<ellipse fill="#EFEAE0" cx="17" cy="28.50317" rx="6.01236" ry="1.50165"/>
						</g>
					</g>
					<path fill="#AA9991" d="M23.00702,28.52946c-0.02869-0.59924-1.42908-1.11255-3.44244-1.35382       c-0.35327,0.96881-1.1283,2.19-2.12372,2.82361C20.5199,29.94328,22.95282,29.30955,23.00702,28.52946z"/>
				</g>
				<g>
					<g>
						<g>
							<path fill="#FF786E" d="M26.42377,31.26188l1.84576,11.48792c1.55362,1.64771,5.93382,1.66837,7.46094,0.05219         l1.87341-11.55286C34.87782,32.25691,29.13884,32.26298,26.42377,31.26188z"/>
						</g>
						<g>
							<path fill="#BE5652" d="M26.42377,31.26188l1.84576,11.48792c0,0,1.10419,1.22699,3.53839,1.24481L31.2851,31.98997         C29.09137,31.94029,27.52283,31.66716,26.42377,31.26188z"/>
						</g>
						<g>
							<path fill="#FFFAFA" d="M32,25c-3.64957,0-8,0.60723-8,3.5c0,1.59665,1.38792,3.5,8,3.5c3.64957,0,8-0.60723,8-3.5         C40,26.90335,38.61208,25,32,25z"/>
							<ellipse fill="#EFEAE0" cx="32" cy="28.50317" rx="6.01236" ry="1.50165"/>
						</g>
					</g>
					<path fill="#AA9991" d="M38.00702,28.52946c-0.02869-0.59924-1.42908-1.11255-3.44244-1.35382       c-0.35327,0.96881-1.1283,2.19-2.12372,2.82361C35.5199,29.94328,37.95282,29.30955,38.00702,28.52946z"/>
				</g>
				<g>
					<g>
						<g>
							<path fill="#FF786E" d="M41.42377,31.26188l1.84576,11.48792c1.55362,1.64771,5.93382,1.66837,7.46094,0.05219         l1.87341-11.55286C49.87782,32.25691,44.13884,32.26298,41.42377,31.26188z"/>
						</g>
						<g>
							<path fill="#BE5652" d="M41.42377,31.26188l1.84576,11.48792c0,0,1.10419,1.22699,3.53839,1.24481L46.2851,31.98997         C44.09137,31.94029,42.52283,31.66716,41.42377,31.26188z"/>
						</g>
						<g>
							<path fill="#FFFAFA" d="M47,25c-3.64957,0-8,0.60723-8,3.5c0,1.59665,1.38792,3.5,8,3.5c3.64957,0,8-0.60723,8-3.5         C55,26.90335,53.61208,25,47,25z"/>
							<ellipse fill="#EFEAE0" cx="47" cy="28.50317" rx="6.01236" ry="1.50165"/>
						</g>
					</g>
					<path fill="#AA9991" d="M53.00702,28.52946c-0.02869-0.59924-1.42908-1.11255-3.44244-1.35382       c-0.35327,0.96881-1.1283,2.19-2.12372,2.82361C50.5199,29.94328,52.95282,29.30955,53.00702,28.52946z"/>
				</g>
			</g>
			<g>
				<g>
					<g>
						<g>
							<path fill="#FF786E" d="M18.92377,40.26188l1.84576,11.48792c1.55362,1.64771,5.93382,1.66837,7.46094,0.05219         l1.87341-11.55286C27.37782,41.25691,21.63884,41.26298,18.92377,40.26188z"/>
						</g>
						<g>
							<path fill="#BE5652" d="M18.92377,40.26188l1.84576,11.48792c0,0,1.10419,1.22699,3.53839,1.24481L23.7851,40.98997         C21.59137,40.94029,20.02283,40.66716,18.92377,40.26188z"/>
						</g>
						<g>
							<path fill="#FFFAFA" d="M24.5,34c-3.64957,0-8,0.60723-8,3.5c0,1.59665,1.38792,3.5,8,3.5c3.64957,0,8-0.60723,8-3.5         C32.5,35.90335,31.11208,34,24.5,34z"/>
							<ellipse fill="#EFEAE0" cx="24.5" cy="37.50317" rx="6.01236" ry="1.50165"/>
						</g>
					</g>
					<path fill="#AA9991" d="M30.50702,37.52946c-0.02869-0.59924-1.42908-1.11255-3.44244-1.35382       c-0.35327,0.96881-1.1283,2.19-2.12372,2.82361C28.0199,38.94328,30.45282,38.30955,30.50702,37.52946z"/>
				</g>
				<g>
					<g>
						<g>
							<path fill="#FF786E" d="M33.92377,40.26188l1.84576,11.48792c1.55362,1.64771,5.93382,1.66837,7.46094,0.05219         l1.87341-11.55286C42.37782,41.25691,36.63884,41.26298,33.92377,40.26188z"/>
						</g>
						<g>
							<path fill="#BE5652" d="M33.92377,40.26188l1.84576,11.48792c0,0,1.10419,1.22699,3.53839,1.24481L38.7851,40.98997         C36.59137,40.94029,35.02283,40.66716,33.92377,40.26188z"/>
						</g>
						<g>
							<path fill="#FFFAFA" d="M39.5,34c-3.64957,0-8,0.60723-8,3.5c0,1.59665,1.38792,3.5,8,3.5c3.64957,0,8-0.60723,8-3.5         C47.5,35.90335,46.11208,34,39.5,34z"/>
							<ellipse fill="#EFEAE0" cx="39.5" cy="37.50317" rx="6.01236" ry="1.50165"/>
						</g>
					</g>
					<path fill="#AA9991" d="M45.50702,37.52946c-0.02869-0.59924-1.42908-1.11255-3.44244-1.35382       c-0.35327,0.96881-1.1283,2.19-2.12372,2.82361C43.0199,38.94328,45.45282,38.30955,45.50702,37.52946z"/>
				</g>
			</g>
			<g>
				<g>
					<g>
						<path fill="#FF786E" d="M26.42377,48.26188l1.84576,11.48792c1.55362,1.64771,5.93382,1.66837,7.46094,0.05219        l1.87341-11.55286C34.87782,49.25691,29.13884,49.26298,26.42377,48.26188z"/>
					</g>
					<g>
						<path fill="#BE5652" d="M26.42377,48.26188l1.84576,11.48792c0,0,1.10419,1.22699,3.53839,1.24481L31.2851,48.98997        C29.09137,48.94029,27.52283,48.66716,26.42377,48.26188z"/>
					</g>
					<g>
						<path fill="#FFFAFA" d="M32,42c-3.64957,0-8,0.60723-8,3.5c0,1.59665,1.38792,3.5,8,3.5c3.64957,0,8-0.60723,8-3.5        C40,43.90335,38.61208,42,32,42z"/>
						<ellipse fill="#EFEAE0" cx="32" cy="45.50317" rx="6.01236" ry="1.50165"/>
					</g>
				</g>
				<path fill="#AA9991" d="M38.00702,45.52946c-0.02869-0.59924-1.42908-1.11255-3.44244-1.35382      c-0.35327,0.96881-1.1283,2.19-2.12372,2.82361C35.5199,46.94328,37.95282,46.30955,38.00702,45.52946z"/>
			</g>
		</g>
	</g>
</g>
<metadata><work rdf:about=""><format>image/svg+xml</format><type rdf:resource="http://purl.org/dc/dcmitype/StillImage"/><license rdf:resource="http://creativecommons.org/licenses/by/4.0/"/><attributionname>Carol Liao</attributionname><attributionurl>http://www.toicon.com/icons/fandom_score</attributionurl></work></metadata></svg>
