<?xml version="1.0" encoding="UTF-8"?>
<!-- Generator: Adobe Illustrator 18.1.1, SVG Export Plug-In . SVG Version: 6.00 Build 0)  -->
<!DOCTYPE svg PUBLIC "-//W3C//DTD SVG 1.1//EN" "http://www.w3.org/Graphics/SVG/1.1/DTD/svg11.dtd">
<svg xmlns="http://www.w3.org/2000/svg" xmlns:xlink="http://www.w3.org/1999/xlink" xmlns:dc="http://purl.org/dc/elements/1.1/" xmlns:cc="http://creativecommons.org/ns#" xmlns:rdf="http://www.w3.org/1999/02/22-rdf-syntax-ns#" version="1.1" id="icons" x="0px" y="0px" viewBox="0 0 64 64" enable-background="new 0 0 64 64" xml:space="preserve">
<title property="dc:title">to rule</title><desc property="dc:description">An icon for "rule" from the Fandom series on to [icon]. Downloaded from http://www.toicon.com/icons/fandom_rule by 166.137.252.109 on 2015-04-25. Licensed CC-BY, see http://toicon.com/license/ for details.</desc><g>
	<g>
		<path fill="#FFC865" d="M32,7C18.19287,7,7,18.19287,7,32h50C57,18.19287,45.80713,7,32,7z"/>
		<path fill="#BE9148" d="M32,57c13.80713,0,25-11.19287,25-25H7C7,45.80713,18.19287,57,32,57z"/>
	</g>
	<g>
		<g>
			<path fill="#3A3A3A" d="M51.58411,21.19244l-2.32043,1.39972l-5.46332,8.63031l-0.34161-0.69031l5.60016-11.68585     l-0.04547-2.70953l-2.14038,1.66205l-4.77966,9.97388l-0.47736-0.96472l4.23914-13.29773l-0.41852-2.67743l-1.89087,1.94122     l-3.47699,10.90698l-0.52917-1.06946l2.42914-13.20239l-0.7533-2.60309l-1.63049,2.16449l-1.8418,10.01031l-1.06067-2.14362     l1.10803-11.22601l-0.96802-2.53119l-1.44409,2.29309l-0.77319,7.8335c-0.34595-0.38593-0.76709-0.75146-1.25012-0.97705V4.23633     L32.14319,1.8125l-1.21198,2.42383v7.87897c-0.49408,0.1629-0.9314,0.48138-1.30011,0.84381l-0.74872-7.58594l-1.44415-2.29309     l-0.96796,2.53119l1.06464,10.78662l-1.08795,2.19879l-1.77112-9.6261l-1.63049-2.16449l-0.75336,2.60309l2.35846,12.81824     l-0.56067,1.13312l-3.37482-10.58649l-1.89081-1.94122l-0.41852,2.67743l4.13696,12.97717l-0.50348,1.01752l-4.65137-9.70612     l-2.14044-1.66205l-0.04541,2.70953l5.4718,11.41809l-0.35962,0.72681l-5.31696-8.39905l-2.32043-1.39972l0.27246,2.69623     l6.10638,9.64606l-1.42523,2.88043c-0.13806,0.27905-0.16766,0.60175-0.08282,0.90247l2.27594,20.79388     C19.97198,58.63788,20.44073,59,20.97351,59h22.05298c0.53278,0,1.00153-0.36212,1.15009-0.88849l2.27594-20.79388     c0.08484-0.30072,0.05524-0.62341-0.08282-0.90247l-1.31085-2.64917l6.25281-9.87732L51.58411,21.19244z"/>
			<path fill="#4D4D4D" d="M44.8772,37h-2.08264l-2.17798-4.36243C40.4231,32.24536,40.04309,32,39.62909,32h-2.01672     l2.19427-4.20074l1.71198,0.89423l0.59619-1.1413l-1.71198-0.89429l0.89429-1.71204     c-0.36556-0.19098,0.20843,0.1223,0.54932-0.53021c0.22638-0.43335,0.05859-0.9682-0.37482-1.19452     c-0.33789-0.17651-0.73737-0.1134-1.00433,0.12836l-1.25262-0.42645l0.62244-1.82843     c-0.39201-0.13354,0.22481,0.08909,0.46198-0.60785c0.15759-0.46283-0.0899-0.96576-0.55273-1.12335     s-0.96576,0.0899-1.12335,0.55273c-0.23716,0.69694,0.38719,0.89703-0.00482,0.76349l-0.6225,1.82849l-1.82843-0.6225     l-0.41498,1.21899l1.82843,0.62244L34.76434,32h-1.45856l2.20532-11.32941l1.89594,0.36902l0.24603-1.26398l-1.89587-0.36902     l0.36902-1.89594c-0.40651-0.07909,0.2348,0.05779,0.37537-0.66486c0.09344-0.47992-0.21991-0.9447-0.69983-1.03809     c-0.47992-0.09344-0.94464,0.21985-1.03809,0.69977c-0.14071,0.72262,0.50508,0.83624,0.09857,0.75714l-0.36902,1.89587     l-1.89594-0.36902l-0.24603,1.26398l1.89594,0.36902l-1.98859,10.21606l-0.77472-2.23126l0.8327-10.27032l1.92517,0.15607     l0.10406-1.28345l-1.92517-0.15613l0.15607-1.92517c-0.41277-0.03348,0.23965,0.03132,0.29919-0.70245     c0.03949-0.4873-0.32355-0.91437-0.81085-0.95392c-0.4873-0.03949-0.91443,0.32355-0.95392,0.81085     c-0.05941,0.73379,0.59322,0.77481,0.18213,0.74146l-0.15607,1.92523l-1.92523-0.15613l-0.10406,1.28345l1.92523,0.15613     l-0.59662,7.35803l-1.6698-4.80914l1.82465-0.63354l-0.42236-1.21637l-1.82465,0.63354l-0.63354-1.82471     c-0.39122,0.13583,0.23199-0.06798-0.00952-0.76343c-0.16034-0.46185-0.66479-0.70624-1.12665-0.5459     c-0.46185,0.1604-0.7063,0.66479-0.5459,1.12665c0.24138,0.69549,0.85686,0.46921,0.46564,0.60504l0.63354,1.82471     l-1.82465,0.63354l0.28644,0.82495l-0.89099,0.39099l-0.77618-1.76874c-0.37919,0.16649,0.22587-0.08611-0.06995-0.76025     c-0.19647-0.44769-0.71869-0.65137-1.16638-0.45496c-0.44775,0.19647-0.65143,0.71869-0.45496,1.16638     c0.29582,0.67414,0.89137,0.39986,0.51215,0.56628l0.77618,1.76874l-1.76874,0.77612l0.51746,1.17914l1.76868-0.77618     L27.83905,32H25.4823l-3.09741-4.99927l1.64197-1.01727l-0.67822-1.0946l-1.64191,1.01727l-1.01727-1.64191     c-0.35204,0.21811,0.21154-0.11706-0.17621-0.74286c-0.25751-0.41565-0.80316-0.54382-1.21881-0.28632     c-0.41559,0.25751-0.54376,0.80316-0.28625,1.21881c0.38782,0.62576,0.93876,0.2705,0.58667,0.48853l1.01727,1.64191     l-1.64191,1.01727l0.67816,1.0946l1.64191-1.01727L23.96753,32c-0.54442,0-0.95917,0.17416-1.18231,0.70685l-1.80066,4.29871     C20.89453,36.99638,19.21367,37,19.1228,37C18.50269,37,18,37.53601,18,38.19727v19.60547C18,58.46393,18.50269,59,19.1228,59     h1.75439C21.49731,59,22,58.46393,22,57.80273V42h20v15.80273C42,58.46393,42.50269,59,43.1228,59h1.75439     C45.49731,59,46,58.46393,46,57.80273V38.19727C46,37.53601,45.49731,37,44.8772,37z M29.90088,32h-0.65564l-4.02911-9.18158     l1.76868-0.77618l-0.31976-0.72864l0.88525-0.30737l2.62823,7.56927L29.90088,32z M38.79968,24.14203l1.24341,0.42328     l-0.78162,1.4964l-0.94696-0.49463L38.79968,24.14203z M36.12457,32l1.77008-5.19952l0.77063,0.40259L36.15961,32H36.12457z"/>
		</g>
		<path fill="#808080" d="M44.93414,42.59778l2.12573,0.69659l0.46442-1.41718L45.3985,41.1806l0.69659-2.12573    c-0.45588-0.14946,0.26138,0.10036,0.52698-0.71008c0.17633-0.53809-0.11694-1.11725-0.65503-1.29358    c-0.53809-0.17627-1.11725,0.11694-1.29358,0.65509c-0.26559,0.81044,0.45857,1.03296,0.00452,0.88422l-0.69659,2.12573    l-2.12573-0.69659l-0.13037,0.39783l-1.51892,0.64673l-0.87634-2.05817c-0.4414,0.18797,0.2627-0.09664-0.07135-0.88135    c-0.2218-0.521-0.82397-0.76355-1.34497-0.54169c-0.521,0.2218-0.76349,0.82397-0.54169,1.34497    c0.33418,0.78465,1.02557,0.47518,0.58594,0.66229l0.87634,2.05817l-2.05817,0.87634l0.58423,1.37207l2.05817-0.87634    l2.15173,5.05371l-3.39368,10.35651l1.41718,0.46436l2.86334-8.7381l3.67993,8.64276l1.37213-0.58423L43.16199,48.0058    L44.93414,42.59778z M40.79059,42.43634l1.58777-0.67603l1.13867,0.37311l-1.24182,3.78961L40.79059,42.43634z"/>
		<path fill="#808080" d="M23.42261,42.59778l2.12567,0.69659l0.46442-1.41718l-2.12573-0.69659l0.69659-2.12573    c-0.4559-0.14941,0.26132,0.10036,0.52692-0.71008c0.17633-0.53809-0.11694-1.11725-0.65503-1.29358    c-0.53809-0.17627-1.11725,0.11694-1.29358,0.65509c-0.26559,0.81044,0.45857,1.03296,0.00452,0.88422l-0.69659,2.12573    l-2.12573-0.69659l-0.13037,0.39783l-1.51892,0.64673l-0.87634-2.05817c-0.44137,0.18804,0.26283-0.09669-0.07135-0.88135    c-0.2218-0.521-0.82397-0.76355-1.34497-0.54169c-0.521,0.2218-0.76349,0.82397-0.54169,1.34497    c0.33418,0.78465,1.02557,0.47518,0.58594,0.66229l0.87634,2.05817l-2.05817,0.87634l0.58423,1.37207l2.05817-0.87634    l2.15173,5.05371l-3.39368,10.35651l1.41718,0.46436l2.86334-8.73804l3.67993,8.6427l1.37213-0.58423l-4.34711-10.20966    L23.42261,42.59778z M19.27899,42.43634l1.58777-0.67603l1.13867,0.37311l-1.24182,3.78961L19.27899,42.43634z"/>
	</g>
</g>
<metadata><work rdf:about=""><format>image/svg+xml</format><type rdf:resource="http://purl.org/dc/dcmitype/StillImage"/><license rdf:resource="http://creativecommons.org/licenses/by/4.0/"/><attributionname>Carol Liao</attributionname><attributionurl>http://www.toicon.com/icons/fandom_rule</attributionurl></work></metadata></svg>
