<?xml version="1.0" encoding="UTF-8"?>
<!-- Generator: Adobe Illustrator 18.1.1, SVG Export Plug-In . SVG Version: 6.00 Build 0)  -->
<!DOCTYPE svg PUBLIC "-//W3C//DTD SVG 1.1//EN" "http://www.w3.org/Graphics/SVG/1.1/DTD/svg11.dtd">
<svg xmlns="http://www.w3.org/2000/svg" xmlns:xlink="http://www.w3.org/1999/xlink" xmlns:dc="http://purl.org/dc/elements/1.1/" xmlns:cc="http://creativecommons.org/ns#" xmlns:rdf="http://www.w3.org/1999/02/22-rdf-syntax-ns#" version="1.1" id="icons" x="0px" y="0px" viewBox="0 0 64 64" enable-background="new 0 0 64 64" xml:space="preserve">
<title property="dc:title">to clone</title><desc property="dc:description">An icon for "clone" from the Fandom series on to [icon]. Downloaded from http://www.toicon.com/icons/fandom_clone by 208.185.23.206 on 2015-04-02. Licensed CC-BY, see http://toicon.com/license/ for details.</desc><g>
	<g>
		<path fill="#00B3A5" d="M32,7C18.19287,7,7,18.19287,7,32h50C57,18.19287,45.80713,7,32,7z"/>
		<path fill="#01826E" d="M32,57c13.80713,0,25-11.19287,25-25H7C7,45.80713,18.19287,57,32,57z"/>
	</g>
	<g>
		<g>
			<g>
				<path fill="#FF786E" d="M41,44c4.02417-0.87799,1.3996-2.43048,0.69928-2.7962l-0.15759-0.0788l-5.67706-8.92114      c-0.10211-0.1604-0.15631-0.34662-0.15631-0.53674v-1.08759c0-0.05078,0.48712-0.59137,0.54169-0.82953l-3.23547,2.492      c-0.80792,0.62653-1.01331,1.76154-0.47607,2.63141l5.76007,9.32697C39.18164,44.2486,40.09241,44.198,41,44z"/>
				<path fill="#BE5652" d="M44,18c-1.5-0.25-5.5-0.66669-7.08331-0.66669c-1.58337,0-3.41669,2.16669-3.83337,3      c-0.41663,0.83331-16,5.91669-16,5.91669c-0.75,0,5.08337,8.66663,6.75,9.66663c1.66669,1,6.41669,5.66669,7.16669,6      c0.6015,0.26733,3.72217,2.08862,7.29852,2.28375l-5.76007-9.32697c-0.53723-0.86987-0.33185-2.00488,0.47607-2.63141      l11.18353-8.60675c0.76233-0.1474,1.44366-0.5799,1.88525-1.21863c0.50092-0.72449,0.58337-1.16663,0.58337-1.16663      C46.16669,21.08331,45.5,18.25,44,18z"/>
			</g>
			<g>
				<path fill="#EFEAE0" d="M44.40051,18.13409l0.76239,5.39587l0.70001-3.58246      C45.49976,19.24469,45.03552,18.45795,44.40051,18.13409z"/>
				<path fill="#EFEAE0" d="M43.47015,17.91925c-0.47797-0.06781-1.07495-0.14215-1.71997-0.21429l0.93597,4.70471      L43.47015,17.91925z"/>
				<path fill="#EFEAE0" d="M40.95129,17.61926c-0.61139-0.06287-1.23816-0.12128-1.82678-0.16858l0.89984,4.16559      L40.95129,17.61926z"/>
				<path fill="#EFEAE0" d="M38.36426,17.39441c-0.56549-0.03772-1.06311-0.06042-1.43262-0.06104l0.6062,4.29034L38.36426,17.39441      z"/>
				<path fill="#EFEAE0" d="M34.52899,22.61401l1.245-4.96362c-0.69611,0.3587-1.36517,0.96808-1.87225,1.5448L34.52899,22.61401z"/>
				<path fill="#EFEAE0" d="M32.62933,20.66119c-0.33063,0.18005-0.82422,0.40692-1.43481,0.66565l0.93567,3.0816L32.62933,20.66119      z"/>
				<path fill="#EFEAE0" d="M29.25342,22.10791c-0.35852,0.13873-0.73248,0.28119-1.11755,0.42596l0.74335,2.42963      L29.25342,22.10791z"/>
				<path fill="#EFEAE0" d="M40.39246,44.11072C40.59491,44.08063,40.79755,44.04419,41,44      c0.32349-0.07056,0.60388-0.14551,0.84589-0.22382l-0.53845-3.61987L40.39246,44.11072z"/>
				<path fill="#EFEAE0" d="M38.39728,44.20551c0.45587,0.021,0.91876,0.01495,1.38446-0.02417l-0.53943-3.62793L38.39728,44.20551z      "/>
				<path fill="#EFEAE0" d="M33.28986,42.98792c0.44342,0.18134,0.93555,0.36462,1.46466,0.53241l-0.42883-3.28455      L33.28986,42.98792z"/>
				<path fill="#EFEAE0" d="M37.09778,40.15631l-0.86969,3.75848c0.46906,0.10168,0.95569,0.18311,1.45367,0.23596      L37.09778,40.15631z"/>
				<path fill="#EFEAE0" d="M26.5022,38.0495c0.25964,0.22766,0.52319,0.4613,0.78625,0.69562l-0.17139-2.88336L26.5022,38.0495z"/>
				<path fill="#EFEAE0" d="M28.74951,40.05255c0.44879,0.40106,0.86444,0.76947,1.21771,1.07227l-0.47211-3.94604      L28.74951,40.05255z"/>
				<path fill="#EFEAE0" d="M31.17877,42.00256c0.27881,0.13904,0.75287,0.38654,1.37292,0.66718l-0.46771-3.4848L31.17877,42.00256      z"/>
			</g>
			<path fill="#644638" d="M45.58331,40.75c-1.35162-0.94617-5.57812-2.04169-5.57812-2.04169l1.5365,2.41669     c0,0,4.04163,1.875-0.54169,2.875s-9.25-1.75-10-2.08337c-0.75-0.33331-5.5-5-7.16669-6c-1.66663-1-7.5-9.66663-6.75-9.66663     c0,0,15.58337-5.08337,16-5.91669c0.41669-0.83331,2.25-3,3.83337-3C38.5,17.33331,42.5,17.75,44,18     s2.16669,3.08331,2.66669,3.25c0.5,0.16663,1.16663-0.66669,1.33331-1.58337c0.11963-0.65796-0.91608-4.86041-0.91608-4.86041     l-0.6673-3.13959c0-0.75,0.16669-2.83331-0.75-3.25c-0.91663-0.41669-2.75-1.5-4.5-3.08331     c-1.75-1.58337-2.04163-2.125-3.45831-2.125c-1.41663,0-2.79169,1.125-3.70856,0.79156     c-2.7489-0.99927-5.68762-0.98615-7.54156-0.99768C26.13196,3.00012,25.29352,3.15851,25,3     c-4.62466-2.49843-4.66414,0.95138-5.66425,0.73853c-0.64441,0.40491-1.13739,0.8421-1.50244,1.09479     c-0.37617,0.26045-0.86343,4.22575-0.77948,4.01587c-1,0.86322-2.76459-1.87714-7.88721,9.73413     c-2.48019,5.62176,2.33317,11.2547,2.00006,18.75C10.99213,41.26025,15,47.75,15,47.75l-1.13403,1.44904     C18.64304,54.23408,25.14993,57,32,57c9.28552,0,17.38849-5.06232,21.70001-12.57758     C50.03961,41.28729,48.32349,42.66803,45.58331,40.75z"/>
		</g>
		<g>
			<path fill="#4B322A" d="M47.08392,14.80621c-0.98505,0.83118-1.63293,1.32031-2.50061,0.61041     c-1.81577-1.48567-2.01523-5.60544-3.50348-4.28497c-1,0.88718-0.25198,1.59148-2.58551,2.75012     c-4.63551,2.30131-7.63479,2.02159-7.55554-3.09332c0,0-5.18011-0.1329-7.36462-4.84705     c-1.07299-2.31573-3.13257-1.96652-4.2384-2.20288c-0.64441,0.40491-1.28428,0.70811-1.50244,1.09479     C17.26105,5.84759,17.09,8.32422,17.04407,8.86505c0,0-5.36234,13.62325-8.38654,15.40356     c0.65973,3.89728,2.73193,8.052,2.50916,13.0647C10.99213,41.26025,15,47.75,15,47.75l-1.13403,1.44904     c1.79938,1.89655,3.88806,3.51569,6.20288,4.77521c-0.6626-2.42737-1.7442-7.24994-0.06885-6.89093     c2.33331,0.5,3.5-1.5,4.41669-1.75C25.33331,45.08331,26.75,48.25,30.83331,50.5c4.08337,2.25,7,1.41663,9.5-0.25     c2.5-1.66669,3.83337-7.16669,3.75-7.83337c-0.06606-0.52846-2.32615-1.39693-2.54163-1.29163c0,0,4.04163,1.875-0.54169,2.875     s-9.25-1.75-10-2.08337c-0.75-0.33331-5.5-5-7.16669-6c-1.66663-1-7.5-9.66663-6.75-9.66663c0,0,15.58337-5.08337,16-5.91669     c0.41669-0.83331,2.25-3,3.83337-3C38.5,17.33331,42.5,17.75,44,18s2.16669,3.08331,2.66669,3.25     c0.5,0.16663,1.16663-0.66669,1.33331-1.58337C48.11962,19.0087,47.08392,14.80621,47.08392,14.80621z"/>
		</g>
	</g>
</g>
<metadata><work rdf:about=""><format>image/svg+xml</format><type rdf:resource="http://purl.org/dc/dcmitype/StillImage"/><license rdf:resource="http://creativecommons.org/licenses/by/4.0/"/><attributionname>Carol Liao</attributionname><attributionurl>http://www.toicon.com/icons/fandom_clone</attributionurl></work></metadata></svg>
