<?xml version="1.0" encoding="UTF-8"?>
<!-- Generator: Adobe Illustrator 18.1.1, SVG Export Plug-In . SVG Version: 6.00 Build 0)  -->
<!DOCTYPE svg PUBLIC "-//W3C//DTD SVG 1.1//EN" "http://www.w3.org/Graphics/SVG/1.1/DTD/svg11.dtd">
<svg xmlns="http://www.w3.org/2000/svg" xmlns:xlink="http://www.w3.org/1999/xlink" xmlns:dc="http://purl.org/dc/elements/1.1/" xmlns:cc="http://creativecommons.org/ns#" xmlns:rdf="http://www.w3.org/1999/02/22-rdf-syntax-ns#" version="1.1" id="icons" x="0px" y="0px" viewBox="0 0 64 64" enable-background="new 0 0 64 64" xml:space="preserve">
<title property="dc:title">to pack</title><desc property="dc:description">An icon for "pack" from the Fandom series on to [icon]. Downloaded from http://www.toicon.com/icons/fandom_pack by 166.137.252.109 on 2015-04-25. Licensed CC-BY, see http://toicon.com/license/ for details.</desc><g>
	<g>
		<path fill="#FFC865" d="M32,7C18.19287,7,7,18.19287,7,32h50C57,18.19287,45.80713,7,32,7z"/>
		<path fill="#BE9148" d="M32,57c13.80713,0,25-11.19287,25-25H7C7,45.80713,18.19287,57,32,57z"/>
	</g>
	<g>
		<g>
			<path fill="#01826E" d="M43.50085,11.49353c0.13019-0.96008,0.27484-2.12897,0.41449-3.47894     c0.26971-2.60669-0.33826-3.5473-0.79102-3.88892c-0.22369,0.43842-2.22162,4.36969-2.83527,6.09796     C41.45178,10.55029,42.52039,10.97931,43.50085,11.49353z"/>
			<g>
				<path fill="#00B3A5" d="M35.77374,9.52936c0.13868-0.66529,0.23522-1.35831,0.30615-2.03418l-1.45215,2.02167      C35.01733,9.51147,35.39923,9.51575,35.77374,9.52936z"/>
				<path fill="#00B3A5" d="M43.125,4.125c0,0-1.34619-0.68018-2.59406-0.85352c-0.79559-0.11053-1.58423,0.23267-2.05286,0.88507      l-0.48358,0.67322c0.0033,0.0116,0.00623,0.01733,0.0097,0.03101c0.08062,0.28519,0.7152,3.58571,1.07678,5.05811      c0.41504,0.08563,0.81873,0.18414,1.21179,0.29443C40.94751,8.37598,43.125,4.125,43.125,4.125z"/>
			</g>
		</g>
		<g>
			<path fill="#4D4D4D" d="M36.16907,6.39777c-0.05906,1.10647-0.2151,2.26993-0.39771,3.14301     c1.17542,0.04309,2.27905,0.17529,3.31232,0.3891c-0.2494-1.01575-0.36738-1.53605-0.76984-3.68805     c-0.09521-0.47008-0.27477-1.5558-0.56073-1.93353c-0.82621-1.2036-3.27302-2.75475-5.51178-2.97046     c-5.0048-0.37567-3.54124,5.05387-3.39667,6.1441c0.22675,1.41553,0.30444,2.51068,0.33087,3.02625     c0.69531-0.14941,2.66071-0.64215,3.04797-0.73987c-0.20978-0.35413-0.79474-1.38086-1.42578-2.85059     c-1.58016-3.43299-0.5041-4.53509,1.35284-4.31824C33.15068,2.69985,36.25695,3.71169,36.16907,6.39777z"/>
		</g>
		<g>
			<path fill="#01826E" d="M26.35284,11.26306c0.86201-0.36254,0.92775-0.34779,2.82269-0.75494     c-0.02441-0.47595-0.09802-1.45935-0.28662-2.71881l-5.21686-3.19745c-0.80939-0.49609-1.79498-0.61407-2.69861-0.32306     l-6.57806,2.11835C14.39539,6.38715,24.26996,6.43219,26.35284,11.26306z"/>
			<g>
				<path fill="#00B3A5" d="M14.79144,6.25958c-0.05127-0.00519-0.07959-0.00806-0.07959-0.00806s-0.07532,0.03229-0.19458,0.09637      L14.79144,6.25958z"/>
				<path fill="#00B3A5" d="M16.71484,6.5415c-1.19855-0.13086-2.0705-0.15088-2.271-0.15375      c-0.7146,0.40741-2.64606,1.8158-3.1225,5.3338c-0.49304,3.64105-0.38153,5.6911-0.33282,6.25684      c0.02169,0.25297,1.49128,3.9397,1.59479,4.20477c0.16528,0.42328,0.57678,0.69873,1.03113,0.69019l0.71686-0.01355      c0.53204-0.01007,0.97833-0.40454,1.05359-0.93134c0.02926-0.20481,0.64492-4.38426,0.62726-4.58954L15.2995,9.09955      C15.2995,9.09955,15.7005,7.45923,16.71484,6.5415z"/>
			</g>
			<path fill="#4D4D4D" d="M16.96692,36.80627l-1.36432-8.23969c-0.02484-2.93323-0.09863-5.34296-0.25073-6.53864     c-0.11591,0.47321-0.52466,0.82245-1.02057,0.83185l-0.71686,0.01355c-0.41492,0.00781-0.78461-0.22821-0.97321-0.59039     c0.32031,2.01923,1.23694,9.66382,0.53357,17.55713c-0.44812,5.02899-0.62201,7.46667-0.68787,8.64197     c-0.03339,0.59662,0.41931,1.1059,1.01569,1.14319l0.71735,0.0448c0.61456,0.03845,1.1377-0.43707,1.15222-1.05273     c0.04144-1.75635,0.12109-5.37622,0.17743-9.42346l1.15436,2.82819C16.78528,40.37158,16.87366,38.61139,16.96692,36.80627z"/>
		</g>
		<g>
			<path fill="#EFEAE0" d="M52.83508,34.23907c0.49514-13.65813-5.34137-25.45886-19.22687-24.68744     c-12.377,0.68758-13.26453,26.60657-13.26453,26.60657c-0.33173,7.16357-0.56873,15.11926-0.56873,16.97266     c0,3.43573,0.99457,6.78101,2.89325,7.32349s27.39526-3.43573,28.57062-4.24945     c2.84387-1.96875,0.76807-8.89636,1.08496-10.21667C52.87268,43.70123,52.684,38.40656,52.83508,34.23907z"/>
			<circle fill="#01826E" cx="39" cy="29" r="4"/>
			<path fill="#00B3A5" d="M52.83508,34.23907c-12.23729,6.73491-27.96869,3.68207-32.48694,1.823     c-0.33405,7.18842-0.57318,15.20709-0.57318,17.06879c0,3.43573,0.99457,6.78101,2.89325,7.32349     s27.39526-3.43573,28.57062-4.24945c2.84386-1.96876,0.76809-8.89637,1.08496-10.21667     C52.87268,43.70123,52.68436,38.37497,52.83508,34.23907z"/>
			<g>
				<path fill="#534741" d="M20.34814,36.06207c-0.00244,0.05579-0.00421,0.08777-0.00439,0.0946L20.34814,36.06207z"/>
				<path fill="#AA9991" d="M20.34375,36.15668l-0.00006,0.00153C20.34369,36.1582,20.34369,36.15759,20.34375,36.15668z"/>
				<path fill="#AA9991" d="M26.35284,11.26306c0,0-5.43618,2.52861-7.93618,13.11194      c-0.67499,2.85748-1.15159,6.77869-1.32011,9.95551c1.22821,1.09857,3.2323,1.72552,3.25098,1.73138      c0.06891-1.60162,1.16248-22.72552,11.01068-26.07721C27.3075,10.99036,27.62024,10.72998,26.35284,11.26306z"/>
				<path fill="#01826E" d="M16.20831,52.54163c0,0-0.0813,4.45544,2.75,6.45837c2.38544,1.6875,4.41669,1.50494,4.41669,1.50494      c-0.33594,0.00281-0.57678-0.01343-0.70679-0.0506c-1.89868-0.54248-2.89325-3.88776-2.89325-7.32349      c0-1.85339,0.237-9.80908,0.56873-16.97266c0.00018-0.00684,0.0014-0.04053,0.00385-0.09631      c-0.01868-0.00586-2.02277-0.63281-3.25098-1.73138C16.60291,43.63452,16.20831,52.54163,16.20831,52.54163z"/>
			</g>
			<path fill="#01826E" d="M23.28418,41.88086c-1.38301-0.38111-0.80976-2.4734,0.57617-2.0918     c0.16309,0.04395,16.44287,4.42188,26.77734-1.08691c1.26658-0.67661,2.2886,1.2395,1.02148,1.91406     C43.76486,44.82675,31.41584,44.13444,23.28418,41.88086z"/>
		</g>
	</g>
</g>
<metadata><work rdf:about=""><format>image/svg+xml</format><type rdf:resource="http://purl.org/dc/dcmitype/StillImage"/><license rdf:resource="http://creativecommons.org/licenses/by/4.0/"/><attributionname>Carol Liao</attributionname><attributionurl>http://www.toicon.com/icons/fandom_pack</attributionurl></work></metadata></svg>
