<?xml version="1.0" encoding="UTF-8"?>
<!-- Generator: Adobe Illustrator 18.1.1, SVG Export Plug-In . SVG Version: 6.00 Build 0)  -->
<!DOCTYPE svg PUBLIC "-//W3C//DTD SVG 1.1//EN" "http://www.w3.org/Graphics/SVG/1.1/DTD/svg11.dtd">
<svg xmlns="http://www.w3.org/2000/svg" xmlns:xlink="http://www.w3.org/1999/xlink" xmlns:dc="http://purl.org/dc/elements/1.1/" xmlns:cc="http://creativecommons.org/ns#" xmlns:rdf="http://www.w3.org/1999/02/22-rdf-syntax-ns#" version="1.1" id="icons" x="0px" y="0px" viewBox="0 0 64 64" enable-background="new 0 0 64 64" xml:space="preserve">
<title property="dc:title">to slice</title><desc property="dc:description">An icon for "slice" from the Fandom series on to [icon]. Downloaded from http://www.toicon.com/icons/fandom_slice by 208.185.23.206 on 2015-04-02. Licensed CC-BY, see http://toicon.com/license/ for details.</desc><g>
	<g>
		<path fill="#FFC865" d="M32,7C18.19287,7,7,18.19287,7,32h50C57,18.19287,45.80713,7,32,7z"/>
		<path fill="#BE9148" d="M32,57c13.80713,0,25-11.19287,25-25H7C7,45.80713,18.19287,57,32,57z"/>
	</g>
	<g>
		<g>
			<path fill="#685683" d="M46.49548,27.62445c0.80818-2.15526-2.49051-5.28288-3.67596-4.26678     c0.42025-1.09272-3.00728-3.68821-4.26678-2.42871c0,0-1.50977-1.44415-2.98669-0.36108     c-1.07806,0.79057-5.51398,6.36731-5.51398,6.36731c-2.26465,2.72418-1.57538,3.74164-2.46155,4.82471     C26.84424,32.672,9.927,43.74011,9.927,43.74011c2.19104,4.11078,5.49695,7.53375,9.51379,9.87299     c0,0,13.0459-13.23206,14.58264-13.5166c1.77234-0.32825,7.41754-0.13129,9.38684-1.44415     c1.96924-1.31287,5.05444-2.88824,5.2514-3.87286c0.1969-0.98468-1.05029-2.88831-1.05029-2.88831     C49.44773,30.05483,47.64414,27.91162,46.49548,27.62445z"/>
			<g>
				<path fill="#4D4D4D" d="M63.28196,7.26172c0.42411-0.36858,0.99211,0.25582,0.58197,0.64325L42.80693,27.73712      c-0.97697,0.9202-2.36699-0.55563-1.39001-1.47583C41.43914,26.24028,63.25887,7.28178,63.28196,7.26172z"/>
				<path fill="#4D4D4D" d="M63.48198,17.43384c0.36879-0.23417,0.73459,0.3115,0.3725,0.56226L44.56737,31.31409      c-0.85881,0.59293-1.7545-0.70421-0.89575-1.29724C43.69253,30.00251,63.46058,17.44743,63.48198,17.43384z"/>
				<path fill="#4D4D4D" d="M54.60495,2.64368c0.3187-0.40519,0.93566,0.06047,0.63394,0.47845L39.65213,24.65417      c-0.72062,0.99541-2.22433-0.09312-1.50375-1.08856C38.16623,23.54103,54.58616,2.66756,54.60495,2.64368z"/>
			</g>
		</g>
		<g>
			<g>
				<path fill="#8579A3" d="M54.07306,43.73999c0,0-16.91699-11.06799-17.66327-11.9801      c-0.88617-1.08307-0.19696-2.10052-2.46161-4.82471c0,0-4.43408-5.57543-5.51392-6.36731      c-1.47699-1.08307-2.98676,0.36108-2.98676,0.36108c-1.25722-1.25722-4.68804,1.33344-4.26672,2.42871      c-1.17996-1.01131-4.48804,2.10137-3.67596,4.26678c-1.14389,0.28597-2.95544,2.42726-1.11591,4.26672      c0,0-1.24725,1.90363-1.05029,2.88831c0.1969,0.98462,3.2821,2.56,5.25134,3.87286      c1.9693,1.31287,7.6145,1.11591,9.3869,1.44415c1.53674,0.28455,11.77826,10.65582,14.58246,13.51654      C48.57611,51.27374,51.88208,47.85077,54.07306,43.73999z"/>
				<path fill="#685683" d="M50.1073,49.22705c0,0-14.3385-11.02826-18.62067-11.49371      c-4.94702-0.53766-13.38165-2.49139-16.06049-3.71973c-0.08752,0.26257-0.19696,0.32825-0.08752,0.76587      c0.24353,0.97412,3.2821,2.56,5.25134,3.87286c1.9693,1.31287,7.6145,1.11591,9.3869,1.44415      c1.53674,0.28455,14.58246,13.51654,14.58246,13.51654C46.61298,52.41705,48.47937,50.93762,50.1073,49.22705z"/>
			</g>
			<g>
				<path fill="#4D4D4D" d="M9.05728,3.12213C8.755,2.70461,9.37192,2.23903,9.69122,2.64368l16.4342,20.89233      c0.75983,0.96594-0.69928,2.1137-1.45905,1.14771C24.64939,24.66232,9.0733,3.14426,9.05728,3.12213z"/>
				<path fill="#4D4D4D" d="M0.14567,17.99609c-0.35949-0.2482,0.00042-0.79792,0.3725-0.56226l19.7851,12.56628      c0.88091,0.55952,0.03573,1.89021-0.84518,1.33069C19.43948,31.3191,0.16376,18.00858,0.14567,17.99609z"/>
				<g>
					<path fill="#4D4D4D" d="M0.71832,7.26172C0.29279,6.8931-0.27347,7.519,0.13638,7.90497       C0.15816,7.92549,21.20087,27.74483,21.22351,27.7644c1.01225,0.87951,2.34285-0.65014,1.32974-1.5304L0.71832,7.26172z"/>
				</g>
			</g>
		</g>
	</g>
</g>
<metadata><work rdf:about=""><format>image/svg+xml</format><type rdf:resource="http://purl.org/dc/dcmitype/StillImage"/><license rdf:resource="http://creativecommons.org/licenses/by/4.0/"/><attributionname>Carol Liao</attributionname><attributionurl>http://www.toicon.com/icons/fandom_slice</attributionurl></work></metadata></svg>
