<?xml version="1.0" encoding="UTF-8"?>
<!-- Generator: Adobe Illustrator 18.1.1, SVG Export Plug-In . SVG Version: 6.00 Build 0)  -->
<!DOCTYPE svg PUBLIC "-//W3C//DTD SVG 1.1//EN" "http://www.w3.org/Graphics/SVG/1.1/DTD/svg11.dtd">
<svg xmlns="http://www.w3.org/2000/svg" xmlns:xlink="http://www.w3.org/1999/xlink" xmlns:dc="http://purl.org/dc/elements/1.1/" xmlns:cc="http://creativecommons.org/ns#" xmlns:rdf="http://www.w3.org/1999/02/22-rdf-syntax-ns#" version="1.1" id="icons" x="0px" y="0px" viewBox="0 0 64 64" enable-background="new 0 0 64 64" xml:space="preserve">
<title property="dc:title">to choose</title><desc property="dc:description">An icon for "choose" from the Fandom series on to [icon]. Downloaded from http://www.toicon.com/icons/fandom_choose by 208.185.23.206 on 2015-04-02. Licensed CC-BY, see http://toicon.com/license/ for details.</desc><g>
	<g>
		<path fill="#00B3A5" d="M32,7C18.19287,7,7,18.19287,7,32h50C57,18.19287,45.80713,7,32,7z"/>
		<path fill="#01826E" d="M32,57c13.80713,0,25-11.19287,25-25H7C7,45.80713,18.19287,57,32,57z"/>
	</g>
	<g>
		<g>
			<path fill="#4B322A" d="M54.92346,28.95276c0.16344-3.61491,0.82479-5.17705,0.49109-7.09015     c-0.35569-2.03873-2.38153-4.03351-2.73572-5.68695L53.28125,9.75c0.11749-0.87482-0.5163-1.63251-1.39105-1.75h-9.61932     c-0.98962,0.0625-1.81476,0.65161-1.92712,1.53125c-0.50043,4.09316-0.46723,4.36128-0.70502,4.91913     c-0.50433,1.1839-2.40466,2.24927-3.3266,5.80243c-0.64917,2.50122-0.23706,5.03778-0.39038,7.57904     c0,0-1.39453,9.02539-0.63281,10.40057c0.66998,1.20947,2.69397,1.60345,3.3208,0.1167l-0.65649,4.97723     c0.14685,2.20355,3.07983,2.51569,3.84265,0.60327l-0.33612,2.54761c-0.26904,2.5788,3.65308,3.09375,4.00897,0.44464     l0.36853-2.79529c0.48364,0.91998,1.61194,1.32886,2.50824,1.03467c0.50708-0.15149,1.09631-0.56488,1.23297-1.6507     l1.359-11.33868c0.1164,2.44623,2.76825,3.43457,3.83625,2.85229c0.05536-0.01178,0.72192-0.18823,0.44794-1.82745     C55.04234,31.67933,54.79346,31.82768,54.92346,28.95276z"/>
			<path fill="#644638" d="M41.7959,43.92963l1.7605-13.14453c-1.27515,0-2.1189,0.9649-2.38641,2.54541l-1.59186,11.82574     C40.54688,45.32812,41.4646,44.76019,41.7959,43.92963z"/>
			<path fill="#644638" d="M47.69196,30.16742c-1.31696,0.20758-2.20758,1.06696-2.53522,2.74414l-2.10986,15.72906     c1.04324,0.20312,2.21089-0.32812,2.42188-1.71875L47.69196,30.16742z"/>
			<path fill="#644638" d="M39.73883,29.93977c0,0-1.78571-0.11164-2.05492,1.56582l-1.13197,7.72207     c0.79181,0.27234,1.73954-0.0419,2.07306-0.91516L39.73883,29.93977z"/>
			<path fill="#644638" d="M54.92346,28.95276c0.17751-3.9273,0.82154-5.19519,0.49109-7.09015     c-0.36388-2.08574-2.36321-3.94778-2.73572-5.68695L53.28125,9.75c0.11749-0.87482-0.5163-1.63251-1.39105-1.75H47     c0,0,0,7.08746,0,7.08766c0.00003,0.32812,0.03091,0.61162,0.2656,0.86195c0.93762,1.00007,3.92178,3.08164,3.92178,5.91233     c0.14178,1.37677-0.15699,3.78217-0.89862,4.85571c-0.51336,1.22991-2.73035,18.5144-2.73035,18.5144     s1.76971,0.26794,2.02008-1.7215C49.57855,43.51009,51.46859,28.00138,51.46875,28l1.27832-0.95294     c0,0-0.43457,1.53107-0.43457,3.90607c0.1875,2.92188,2.41962,4.04041,2.45746,4.07178c0,0,0.73746-0.11865,0.45172-1.82819     C54.93539,31.48385,54.7876,31.95465,54.92346,28.95276z"/>
		</g>
		<g>
			<path fill="#644638" d="M8.96493,28.95276c-0.16344-3.61491-0.82479-5.17705-0.49109-7.09015     c0.35569-2.03873,2.38153-4.03351,2.73572-5.68695L10.60714,9.75c-0.11749-0.87482,0.5163-1.63251,1.39105-1.75h9.61932     c0.98962,0.0625,1.81476,0.65161,1.92712,1.53125c0.50043,4.09316,0.46723,4.36128,0.70502,4.91913     c0.50433,1.1839,2.40466,2.24927,3.3266,5.80243c0.64917,2.50122,0.23706,5.03778,0.39038,7.57904     c0,0,1.39453,9.02539,0.63281,10.40057c-0.66998,1.20947-2.69397,1.60345-3.3208,0.1167l0.65649,4.97723     c-0.14685,2.20355-3.07983,2.51569-3.84265,0.60327l0.33612,2.54761c0.26904,2.5788-3.65308,3.09375-4.00897,0.44464     l-0.36853-2.79529c-0.48364,0.91998-1.61194,1.32886-2.50824,1.03467c-0.50708-0.15149-1.09631-0.56488-1.23297-1.6507     l-1.35901-11.33868c-0.11639,2.44623-2.76825,3.43457-3.83624,2.85229c-0.05536-0.01178-0.72192-0.18823-0.44794-1.82745     C8.84604,31.67933,9.09493,31.82768,8.96493,28.95276z"/>
			<path fill="#4B322A" d="M22.09249,43.92963l-1.7605-13.14453c1.27515,0,2.1189,0.9649,2.38641,2.54541l1.59186,11.82574     C23.34151,45.32812,22.42378,44.76019,22.09249,43.92963z"/>
			<path fill="#4B322A" d="M16.19643,30.16742c1.31696,0.20758,2.20759,1.06696,2.53522,2.74414l2.10986,15.72906     c-1.04324,0.20312-2.21089-0.32812-2.42188-1.71875L16.19643,30.16742z"/>
			<path fill="#4B322A" d="M24.14956,29.93977c0,0,1.78571-0.11164,2.05492,1.56582l1.13197,7.72207     c-0.7918,0.27234-1.73954-0.0419-2.07306-0.91516L24.14956,29.93977z"/>
			<path fill="#4B322A" d="M8.96493,28.95276c-0.1775-3.9273-0.82154-5.19519-0.49109-7.09015     c0.36388-2.08574,2.36321-3.94778,2.73572-5.68695L10.60714,9.75c-0.11749-0.87482,0.5163-1.63251,1.39105-1.75h4.8902     c0,0,0,7.08746,0,7.08766c-0.00003,0.32812-0.03091,0.61162-0.2656,0.86195c-0.93762,1.00007-3.92178,3.08164-3.92178,5.91233     c-0.14178,1.37677,0.15699,3.78217,0.89862,4.85571c0.51336,1.22991,2.73035,18.5144,2.73035,18.5144     S14.56026,45.5,14.3099,43.51056C14.30984,43.51009,12.4198,28.00138,12.41964,28l-1.27832-0.95294     c0,0,0.43457,1.53107,0.43457,3.90607c-0.1875,2.92188-2.41962,4.04041-2.45746,4.07178c0,0-0.73746-0.11865-0.45172-1.82819     C8.953,31.48385,9.10079,31.95465,8.96493,28.95276z"/>
		</g>
		<path fill="#4B322A" d="M36.56513,39.22943c0.00433,0.00159,0.00873,0.00342,0.013,0.00494    c0.00049,0.00018,0.00122-0.00104,0.00214-0.00299C36.57434,39.23065,36.56922,39.22998,36.56513,39.22943z"/>
		<path fill="#4B322A" d="M27.32326,39.22943c-0.00433,0.00159-0.00873,0.00342-0.013,0.00494    c-0.00049,0.00018-0.00122-0.00104-0.00214-0.00299C27.31404,39.23065,27.31917,39.22998,27.32326,39.22943z"/>
		<g>
			<path fill="#FF786E" d="M19.08231,25.8058l2.67565-1.35681c0.61317-0.31094,0.86045-1.06702,0.54951-1.68019l-0.11307-0.22297     c-0.31093-0.61317-1.06702-0.86045-1.68019-0.54951l-2.67565,1.35681c-0.61317,0.31093-0.86045,1.06702-0.54951,1.68019     l0.11307,0.22297C17.71306,25.86946,18.46915,26.11674,19.08231,25.8058z"/>
			<path fill="#BE5652" d="M20.8517,24.0896c0.61316-0.31091,0.86047-1.06702,0.5495-1.68018     c-0.11285-0.22259-0.17633-0.37609-0.35065-0.54724c0.46576-0.00946,0.9201,0.24237,1.14386,0.68365l0.11304,0.22296     c0.31097,0.61316,0.06366,1.36926-0.5495,1.68018l-2.67566,1.35681c-0.48962,0.24829-1.07013,0.14032-1.44257-0.22528     C18.10778,25.5709,20.39262,24.3224,20.8517,24.0896z"/>
		</g>
		<path fill="#66C0D2" d="M44.80608,25.8058l-2.67565-1.35681c-0.61317-0.31094-0.86045-1.06702-0.54951-1.68019l0.11307-0.22297    c0.31094-0.61317,1.06702-0.86045,1.68019-0.54951l2.67565,1.35681c0.61317,0.31093,0.86045,1.06702,0.54951,1.68019    l-0.11307,0.22297C46.17533,25.86946,45.41924,26.11674,44.80608,25.8058z"/>
		<g>
			<path fill="#4B889B" d="M43.03669,24.0896c-0.61316-0.31091-0.86047-1.06702-0.5495-1.68018     c0.11285-0.22259,0.17633-0.37609,0.35065-0.54724c-0.46576-0.00946-0.9201,0.24237-1.14386,0.68365l-0.11304,0.22296     c-0.31097,0.61316-0.06366,1.36926,0.5495,1.68018l2.67566,1.35681c0.48962,0.24829,1.07013,0.14032,1.44257-0.22528     C45.78061,25.5709,43.49577,24.3224,43.03669,24.0896z"/>
		</g>
	</g>
</g>
<metadata><work rdf:about=""><format>image/svg+xml</format><type rdf:resource="http://purl.org/dc/dcmitype/StillImage"/><license rdf:resource="http://creativecommons.org/licenses/by/4.0/"/><attributionname>Carol Liao</attributionname><attributionurl>http://www.toicon.com/icons/fandom_choose</attributionurl></work></metadata></svg>
